<?xml version="1.0" encoding="UTF-8"?>
<!-- Generated by Pixelmator Pro 3.8 -->
<svg width="1254" height="1254" viewBox="0 0 1254 1254" xmlns="http://www.w3.org/2000/svg">
    <path id="path1" fill="#22252e" fill-rule="evenodd" stroke="none" d="M 131.090485 707.670654 C 222.489594 585.225525 264.061615 529.45752 282.439941 504.744873 C 300.818268 480.032288 333.813965 435.987183 355.763733 406.867004 C 377.713531 377.746826 399.81723 349.793335 404.883087 344.748291 C 411.283813 338.373718 417.172424 334.094604 424.184845 330.721863 C 429.953857 327.947205 438.398956 325.218445 443.902405 324.350586 C 449.19696 323.515747 457.551422 323.020264 462.467834 323.249634 C 471.406738 323.666443 471.406738 323.666443 559.420532 279.586426 C 607.828186 255.342346 674.354248 222.265625 707.256287 206.082642 C 740.158264 189.899536 768.830322 176.394897 770.971863 176.072266 C 773.113464 175.749634 776.266968 176.235718 777.979736 177.152344 C 780.710815 178.614014 782.77948 177.973145 794.795837 171.942993 C 808.497742 165.067139 808.497742 165.067139 807.932068 160.22168 C 807.425293 155.880737 807.91803 154.995239 812.663757 151.717896 C 815.577332 149.705933 827.111389 143.210815 838.294922 137.28418 C 849.478577 131.357666 866.187439 122.477295 875.425781 117.550293 C 884.664185 112.623047 918.068726 94.651489 949.658203 77.613403 C 981.247742 60.575439 1026.390991 36.268799 1049.976807 23.598877 C 1073.5625 10.928833 1094.815796 0.334229 1097.206177 0.055176 C 1099.768677 -0.243896 1103.80249 0.695679 1107.035034 2.344849 C 1110.050537 3.883179 1114.588501 7.499023 1117.119507 10.379883 C 1119.650513 13.260986 1126.073853 24.591431 1131.393677 35.558716 C 1139.426147 52.11853 1141.071899 56.682129 1141.10144 62.47583 C 1141.128296 67.763306 1140.253052 70.787842 1137.48645 74.968628 C 1134.440063 79.572021 1129.950928 82.580444 1110.358154 93.14917 C 1097.44519 100.114624 1063.813599 118.25415 1035.621216 133.459351 C 1007.428772 148.664551 954.412537 177.104736 917.807251 196.65979 C 881.202026 216.214966 849.748718 232.2146 847.911011 232.2146 C 846.073303 232.2146 843.251465 230.734497 841.640137 228.925659 C 838.710571 225.636597 838.710571 225.636597 824.691345 232.608887 C 815.245728 237.306519 810.902649 240.18219 811.378906 241.423401 C 811.767822 242.436707 811.330688 245.088989 810.407593 247.317444 C 809.060364 250.569885 798.653564 257.669861 757.648987 283.310913 C 729.554871 300.878906 694.191711 322.951904 679.064331 332.361816 C 663.936951 341.771851 639.492493 356.925354 624.743286 366.036316 C 609.994141 375.147278 592.195496 386.050171 585.190857 390.264832 C 574.482971 396.707886 571.964722 398.913513 569.375854 404.116577 C 566.665527 409.563599 566.26825 412.652832 566.06012 429.901855 C 565.861694 446.343872 566.149414 449.498718 567.847473 449.498718 C 568.96051 449.498718 571.629944 450.408142 573.77948 451.519714 C 575.965637 452.650146 578.359497 455.46759 579.212097 457.913391 C 580.050476 460.318359 580.736389 465.597351 580.736389 469.644531 C 580.736389 477.002991 580.736389 477.002991 585.549683 477.002991 C 588.529297 477.002991 591.410706 478.050781 593.113342 479.753418 C 595.525696 482.165771 595.86377 484.337463 595.86377 497.419128 L 595.86377 512.334412 L 614.085388 513.19342 C 624.107239 513.665833 634.403564 514.670776 636.966003 515.426636 C 639.528381 516.182556 642.777344 517.843933 644.185852 519.118591 C 646.628662 521.329285 646.746765 525.190979 646.746765 602.857666 L 646.746765 684.279114 L 659.253113 684.992188 C 668.335266 685.510071 672.382996 686.328369 674.036682 687.981079 C 676.05835 690.001404 676.358032 695.91748 676.707581 740.697388 C 677.079224 788.325439 676.956543 791.33252 674.506348 794.626953 C 672.492371 797.3349 670.480164 798.209778 665.517578 798.535095 C 659.123718 798.954224 659.123718 798.954224 659.123718 821.99469 C 659.123718 839.721436 658.673584 845.650879 657.171997 847.704651 C 655.26886 850.307617 652.175598 850.38324 532.927979 850.739624 C 410.721375 851.104858 410.633179 851.103149 406.984619 848.233215 C 403.333557 845.361206 403.333557 845.361206 403.333557 822.038757 L 403.333557 798.716248 L 387.174774 799.103699 L 371.015961 799.49115 L 342.486298 835.246765 L 313.956604 871.00238 L 313.947449 898.506714 C 313.942413 913.634033 314.554779 962.213623 315.308258 1006.461121 C 316.061737 1050.70874 317.062866 1097.705444 317.533051 1110.898438 C 318.387054 1134.863037 318.391479 1134.889038 322.248871 1138.74646 C 326.109894 1142.607544 326.109894 1142.607544 643.202942 1142.607544 C 958.462402 1142.607544 960.311829 1142.623413 963.046448 1145.35791 C 965.696411 1148.007935 965.796875 1149.942017 965.796875 1198.303711 C 965.796875 1246.665527 965.696411 1248.599609 963.046448 1251.249512 C 960.307983 1253.988037 958.462402 1254 538.792297 1254 C 117.288635 1254 117.288635 1254 114.387161 1251.098511 C 111.588425 1248.299805 111.518089 1247.387085 112.400719 1225.313232 C 112.904007 1212.727173 113.890846 1184.011597 114.593773 1161.500854 C 115.2967 1138.990234 116.804741 1094.897217 117.944977 1063.516357 C 119.085258 1032.135498 120.961533 980.159912 122.114487 948.014893 C 123.267433 915.869995 125.758713 848.642273 127.650642 798.620056 L 131.090485 707.670654 Z M 952.044678 1240.247803 L 952.044678 1156.359619 L 540.365356 1156.359619 L 128.686005 1156.359619 L 127.822586 1186.958252 C 127.347717 1203.787476 126.607567 1222.662231 126.177811 1228.902344 L 125.396446 1240.247803 L 538.72052 1240.247803 L 952.044678 1240.247803 Z M 299.839386 868.251953 C 325.99939 835.212402 340.601501 816.88208 349.165955 806.202148 C 362.599579 789.450195 365.451996 786.605835 369.939667 785.487183 C 372.800751 784.773926 379.628265 784.453979 385.111938 784.776062 L 395.082245 785.361755 L 395.082245 742.57489 L 395.082245 699.787964 L 384.768036 699.754944 C 379.095184 699.736755 352.253143 699.750977 325.118988 699.786621 C 295.798523 699.825073 274.334869 699.300293 272.2117 698.493103 C 270.246826 697.746033 268.279694 695.702393 267.84024 693.951538 C 267.20874 691.435486 272.06192 683.28302 290.996674 655.053101 C 304.17215 635.409668 326.443909 601.700684 340.489471 580.144226 C 354.535034 558.587708 375.813232 525.494995 387.774445 506.604736 C 399.735596 487.714539 411.641449 469.88269 414.231903 466.978271 C 416.822357 464.073853 420.78537 460.744263 423.038574 459.579041 C 427.135315 457.460571 427.135315 457.460571 420.391449 453.333313 C 416.682404 451.063354 410.677948 446.332458 407.048279 442.820129 C 403.41861 439.307861 398.570435 433.513916 396.274567 429.944824 C 393.978668 426.375671 390.847473 420.187195 389.316345 416.192688 C 387.785217 412.198059 386.135529 404.629395 385.650299 399.373413 C 384.768127 389.816895 384.768127 389.816895 341.415833 447.505981 C 317.572113 479.234863 287.399841 519.580566 274.366333 537.162903 C 261.332855 554.745361 238.920242 584.918457 224.560562 604.214233 C 210.200821 623.510071 186.281433 655.537048 171.406281 675.385315 L 144.360596 711.472961 L 143.183258 745.85553 C 142.535736 764.76593 140.786331 812.573242 139.295746 852.093933 C 137.805115 891.614624 135.667587 950.251343 134.545654 982.397583 C 133.423706 1014.543945 131.871933 1059.255371 131.097244 1081.756226 C 130.32251 1104.25708 129.516724 1127.153564 129.30658 1132.637207 L 128.9245 1142.607544 L 218.143616 1142.607544 C 302.607697 1142.607544 307.305298 1142.479248 306.285522 1140.200928 C 305.693085 1138.877197 304.746216 1126.655029 304.181305 1113.040405 C 303.616455 1099.425781 302.799042 1066.317383 302.364838 1039.466309 C 301.930634 1012.615234 301.184814 963.107422 300.707397 929.449036 L 299.839386 868.251953 Z M 645.371521 837.30957 L 645.371521 798.803528 L 531.228638 798.803528 L 417.085693 798.803528 L 417.085693 818.056519 L 417.085693 837.30957 L 531.228638 837.30957 L 645.371521 837.30957 Z M 663.288574 785.051392 L 662.561768 699.100403 L 535.698059 698.749451 L 408.834412 698.398438 L 408.834412 741.724915 L 408.834412 785.051392 L 536.061462 785.051392 L 663.288574 785.051392 Z M 415.71048 684.257019 C 415.71048 523.803772 415.71048 523.803772 419.49234 519.615479 C 422.879456 515.864258 424.494141 515.289001 434.963501 514.103394 C 441.392639 513.375244 451.139496 512.774841 456.623169 512.769043 C 466.593475 512.758606 466.593475 512.758606 466.593475 498.504333 C 466.593475 486.165955 466.976563 483.763 469.443726 480.626526 C 471.640747 477.833496 473.506897 477.002991 477.586395 477.002991 C 482.878754 477.002991 482.878754 477.002991 483.331268 466.669983 C 483.714935 457.906189 483.470428 456.469421 481.720856 457.208862 C 480.586273 457.688293 477.112732 458.879333 474.001892 459.855591 C 470.890961 460.831909 464.702484 462.046875 460.249725 462.555603 C 455.796906 463.06427 447.029205 465.001587 440.766052 466.860779 C 433.673157 468.966187 427.880157 471.645813 425.406006 473.96582 C 423.221222 476.014465 414.817841 488.21106 406.73172 501.069275 C 398.64566 513.927551 379.567932 543.632263 364.336731 567.079651 C 349.10556 590.527039 325.445068 626.548279 311.757874 647.126709 C 292.915405 675.456055 287.404053 684.684692 289.062744 685.129456 C 290.267609 685.452454 314.521576 685.788574 342.960358 685.876282 C 371.399139 685.96405 399.402008 685.63562 405.188873 685.146423 L 415.71048 684.257019 Z M 632.994629 684.660583 L 632.994629 528.081238 L 620.273865 527.606506 C 613.277405 527.345337 576.765198 527.217163 539.135559 527.321716 C 501.505798 527.426086 461.435486 527.595825 450.090302 527.698792 L 429.462646 527.885986 L 429.462646 606.273315 L 429.462646 684.660583 L 531.228638 684.660583 L 632.994629 684.660583 Z M 582.111633 512.758606 L 582.111633 490.755188 L 531.228638 490.755188 L 480.345642 490.755188 L 480.345642 501.756897 L 480.345642 512.758606 L 531.228638 512.758606 L 582.111633 512.758606 Z M 531.572449 476.509949 C 566.296631 476.31543 566.296631 476.31543 566.71582 469.783142 C 567.134888 463.250854 567.134888 463.250854 531.991638 463.250854 C 496.848236 463.250854 496.848236 463.250854 496.848236 469.977661 C 496.848236 476.704529 496.848236 476.704529 531.572449 476.509949 Z M 458.91806 448.622925 C 464.151276 448.231506 471.671814 446.699341 475.630432 445.218262 C 479.589111 443.737122 485.651611 440.369324 489.102661 437.734253 C 492.553711 435.099182 497.35144 430.073853 499.764343 426.566711 C 502.177277 423.059692 505.270416 417.245605 506.638 413.646484 C 508.005493 410.047363 509.536407 403.081177 510.040039 398.166138 C 510.704132 391.683899 510.292664 386.524536 508.54184 379.379944 C 507.016296 373.155151 504.141724 366.555908 500.730713 361.447876 C 497.762207 357.002502 492.251526 351.103088 488.484802 348.337952 C 484.718048 345.572937 478.517334 342.12561 474.705536 340.677185 C 470.893707 339.228821 464.073944 337.656982 459.55069 337.184143 C 454.67215 336.674255 448.137939 337.02887 443.48877 338.055847 C 439.17804 339.007996 432.354065 341.389404 428.32431 343.347778 C 424.053894 345.423096 417.935486 350.21582 413.657318 354.836792 C 409.125427 359.731689 405.126862 365.808533 403.205933 370.719971 C 401.168457 375.929504 399.88855 382.697388 399.497467 390.329407 C 399.061401 398.84021 399.534424 404.033325 401.25116 409.582397 C 402.544159 413.761719 405.468903 420.13031 407.750549 423.734802 C 410.032227 427.339355 414.633972 432.695862 417.976685 435.638245 C 421.319366 438.580627 426.760406 442.26001 430.067871 443.814697 C 433.375305 445.369324 439.078827 447.247314 442.74234 447.987976 C 446.405823 448.728638 453.684967 449.014404 458.91806 448.622925 Z M 525.131409 447.917419 C 529.719788 448.030701 537.145996 447.45459 541.633972 446.636963 C 546.122009 445.819397 550.264832 444.698853 550.84021 444.14679 C 551.41571 443.594788 552.034546 435.381836 552.215454 425.895935 C 552.534058 409.192566 552.696655 408.34967 557.371338 399.162781 C 562.198181 389.676819 562.198181 389.676819 592.233459 370.988647 C 608.752808 360.710205 648.577087 335.95636 680.731812 315.980042 C 712.886536 296.003723 751.562805 271.864746 766.679016 262.337891 C 781.795227 252.810974 795.080078 244.455688 796.200745 243.770691 C 797.886108 242.74054 795.953308 237.924377 785.024902 215.922241 C 775.07959 195.899414 771.30481 189.513672 769.76355 190.105103 C 768.63739 190.537354 734.46405 207.212891 693.822998 227.161987 C 653.181824 247.110962 589.68335 278.572815 552.715088 297.077026 C 485.500275 330.721191 485.500275 330.721191 492.570831 335.258423 C 496.459686 337.753845 502.169647 342.664429 505.259583 346.170837 C 508.349548 349.677124 512.359558 355.070801 514.170654 358.156677 C 515.981812 361.242615 518.693787 367.343079 520.197327 371.713135 C 521.700928 376.083252 523.306213 383.459961 523.764648 388.105835 C 524.301025 393.540039 523.843567 400.116333 522.4823 406.543762 C 521.318481 412.038635 518.407227 420.210144 516.012756 424.702515 C 513.618408 429.194946 509.592804 435.284729 507.067169 438.235474 C 502.474915 443.600403 502.474915 443.600403 505.506287 445.125854 C 507.173523 445.964783 510.394073 446.889771 512.663208 447.181274 C 514.932373 447.4729 520.54303 447.804077 525.131409 447.917419 Z M 458.342194 433.492004 C 454.845642 433.904236 448.974945 433.359375 444.846191 432.239441 C 440.826996 431.14917 434.864227 428.417114 431.59552 426.168213 C 428.326813 423.919312 423.716949 419.157227 421.35141 415.585876 C 418.98587 412.014587 416.370483 406.580505 415.539459 403.510315 C 414.708466 400.440063 414.330078 394.130615 414.698608 389.489258 C 415.150604 383.797119 416.634583 378.72467 419.258118 373.904358 C 421.397278 369.973938 424.966095 365.228027 427.188721 363.357727 C 429.411407 361.487488 434.390656 358.354614 438.253815 356.395813 C 443.600677 353.684631 447.43396 352.814148 454.30954 352.749878 C 461.495087 352.682678 464.928864 353.442078 471.106995 356.464722 C 475.441742 358.58551 481.293457 363.014343 484.352112 366.489075 C 487.365753 369.912842 490.946136 375.602417 492.308441 379.132629 C 493.670807 382.662781 494.7854 388.954773 494.7854 393.114807 C 494.7854 397.274902 493.670807 403.566833 492.308441 407.097046 C 490.946136 410.627258 487.365753 416.316833 484.352112 419.740601 C 481.338348 423.164368 475.645691 427.494812 471.701599 429.363892 C 467.757599 431.233032 461.745819 433.090637 458.342194 433.492004 Z M 454.238037 419.238831 C 460.330048 419.242249 464.732269 418.427979 467.990173 416.695068 C 470.62561 415.293152 474.55191 411.649963 476.71521 408.598999 C 479.028259 405.336853 480.927734 400.574463 481.326355 397.037598 C 481.699188 393.729736 481.257355 388.244934 480.344452 384.849182 C 479.273102 380.864075 476.825928 376.90509 473.442017 373.682861 C 470.010529 370.415222 465.881104 368.13446 461.488281 367.080688 C 456.877838 365.974609 452.946564 365.88208 448.928528 366.78479 C 445.711761 367.507568 440.934998 369.550232 438.31366 371.324158 C 435.692261 373.098083 432.31897 377.065491 430.817474 380.140686 C 429.177887 383.498535 428.087433 388.543884 428.087433 392.771851 C 428.087433 396.64386 428.747498 401.553955 429.55426 403.683228 C 430.361023 405.8125 432.372253 409.029358 434.023682 410.831848 C 435.67514 412.634277 438.882843 415.262085 441.151978 416.671265 C 444.071625 418.484619 447.896881 419.235107 454.238037 419.238831 Z M 806.942566 226.215942 C 807.708191 225.918213 813.781555 222.969849 820.438782 219.664063 C 828.892456 215.466187 832.375305 213.03064 831.987 211.588379 C 831.681213 210.452637 827.865417 202.406738 823.507446 193.708496 C 819.149414 185.010254 815.298096 177.588623 814.948853 177.21582 C 814.599487 176.84314 808.457581 179.62793 801.300171 183.404297 C 792.288147 188.15918 788.455017 190.904785 788.834595 192.333374 C 789.136108 193.467896 793.020447 201.677368 797.466553 210.576538 C 801.91272 219.47583 806.17688 226.51355 806.942566 226.215942 Z M 851.653931 216.260498 C 852.788513 215.881592 875.376404 204.064819 901.849304 190.001099 C 928.322205 175.937378 969.929871 153.672363 994.310791 140.523193 C 1018.691528 127.374023 1057.060059 106.790039 1079.574097 94.781128 C 1102.088135 82.772095 1121.991333 71.766235 1123.803467 70.323486 C 1125.615723 68.880859 1127.347168 65.883423 1127.651367 63.66272 C 1128.057495 60.696167 1125.467773 54.063232 1117.890137 38.662109 C 1108.897217 20.384277 1106.968994 17.40979 1102.835815 15.438965 C 1098.095459 13.178345 1098.095459 13.178345 1078.359619 23.571899 C 1067.505005 29.288452 1032.161987 48.236694 999.819763 65.678955 C 967.477539 83.12146 914.875488 111.402588 882.926392 128.526001 C 850.977295 145.649292 824.348389 160.104492 823.750977 160.648682 C 823.153564 161.192871 828.723145 174.08313 836.12793 189.293823 C 846.170959 209.92395 850.115112 216.774536 851.653931 216.260498 Z"/>
</svg>
